<?xml version="1.0" encoding="UTF-8" standalone="no"?>
<!-- Created with Inkscape (http://www.inkscape.org/) -->

<svg
   xmlns:dc="http://purl.org/dc/elements/1.1/"
   xmlns:cc="http://creativecommons.org/ns#"
   xmlns:rdf="http://www.w3.org/1999/02/22-rdf-syntax-ns#"
   xmlns:svg="http://www.w3.org/2000/svg"
   xmlns="http://www.w3.org/2000/svg"
   xmlns:sodipodi="http://sodipodi.sourceforge.net/DTD/sodipodi-0.dtd"
   xmlns:inkscape="http://www.inkscape.org/namespaces/inkscape"
   width="70"
   height="62"
   id="svg3550"
   version="1.1"
   inkscape:version="0.48.4 r9939"
   sodipodi:docname="ico-blog.svg">
  <defs
     id="defs3552" />
  <sodipodi:namedview
     id="base"
     pagecolor="#ffffff"
     bordercolor="#666666"
     borderopacity="1.0"
     inkscape:pageopacity="0.0"
     inkscape:pageshadow="2"
     inkscape:zoom="1.4321429"
     inkscape:cx="-76.61467"
     inkscape:cy="53.727148"
     inkscape:document-units="px"
     inkscape:current-layer="layer1"
     showgrid="false"
     fit-margin-top="0"
     fit-margin-left="0"
     fit-margin-right="0"
     fit-margin-bottom="0"
     inkscape:window-width="1280"
     inkscape:window-height="1003"
     inkscape:window-x="1920"
     inkscape:window-y="56"
     inkscape:window-maximized="1" />
  <metadata
     id="metadata3555">
    <rdf:RDF>
      <cc:Work
         rdf:about="">
        <dc:format>image/svg+xml</dc:format>
        <dc:type
           rdf:resource="http://purl.org/dc/dcmitype/StillImage" />
        <dc:title></dc:title>
      </cc:Work>
    </rdf:RDF>
  </metadata>
  <g
     inkscape:label="Calque 1"
     inkscape:groupmode="layer"
     id="layer1"
     transform="translate(194.75775,-45.583949)">
    <path
       d="m -161.63275,83.146448 c 0,0.515625 -0.42,0.935625 -0.93563,0.9375 l -12.95437,-0.0225 c -0.20625,-0.06188 -0.65438,-0.549375 -0.72562,-1.0425 l -0.78938,-5.62875 c -0.03,-0.223125 0.0243,-0.444374 0.14625,-0.584999 0.12945,-0.14625 0.3075,-0.22125 0.53625,-0.22125 l 13.785,0 c 0.51562,0 0.9375,0.421875 0.9375,0.9375 l 0,5.625 z m -0.9375,-10.3125 -13.785,0 c -1.32375,0 -2.52,0.53625 -3.36562,1.513125 -0.84001,0.96375 -1.21501,2.265 -1.02938,3.564375 l 0.78937,5.630625 c 0.32813,2.31 2.32876,4.261875 4.36125,4.261875 l 13.02938,0.03 c 2.58562,0 4.6875,-2.101875 4.6875,-4.6875 l 0,-5.625 c 0,-2.585625 -2.10188,-4.6875 -4.6875,-4.6875 m 25.3125,24.375001 c 0,1.03313 -0.84188,1.875 -1.875,1.875 l -41.25,0 c -1.03312,0 -1.875,-0.84187 -1.875,-1.875 l -3.75,-26.250001 c 0,-1.033125 0.84188,-1.875 1.875,-1.875 l 48.75,0 c 1.03312,0 1.875,0.841875 1.875,1.875 l -3.75,26.250001 z m -43.125,-41.250001 c 0,-1.035 0.84,-1.875 1.875,-1.875 l 7.5,0 c 1.035,0 1.875,0.84 1.875,1.875 0,3.10125 2.52375,5.625 5.625,5.625 l 22.5,0 c 1.035,0 1.875,0.84 1.875,1.875 l 0,1.875 -41.25,0 0,-9.375 z m 45,9.375 0,-1.875 c 0,-3.10125 -2.52375,-5.625 -5.625,-5.625 l -22.5,0 c -1.035,0 -1.875,-0.84 -1.875,-1.875 0,-3.10125 -2.52375,-5.625 -5.625,-5.625 l -7.5,0 c -3.10125,0 -5.625,2.52375 -5.625,5.625 l 0,9.375 c -3.10125,0 -5.625,2.52375 -5.625,5.625 l 3.75,26.250001 c 0,3.101251 2.52375,5.625001 5.625,5.625001 l 41.25,0 c 3.10125,0 5.625,-2.52375 5.625,-5.625001 l 3.75,-26.250001 c 0,-3.10125 -2.52375,-5.625 -5.625,-5.625"
       style="fill:#eaa502;fill-opacity:1;fill-rule:nonzero;stroke:none"
       id="path3126"
       inkscape:connector-curvature="0" />
  </g>
</svg>
