<?xml version="1.0" encoding="UTF-8" standalone="no"?>
<!-- Created with Inkscape (http://www.inkscape.org/) -->

<svg
   xmlns:dc="http://purl.org/dc/elements/1.1/"
   xmlns:cc="http://creativecommons.org/ns#"
   xmlns:rdf="http://www.w3.org/1999/02/22-rdf-syntax-ns#"
   xmlns:svg="http://www.w3.org/2000/svg"
   xmlns="http://www.w3.org/2000/svg"
   xmlns:sodipodi="http://sodipodi.sourceforge.net/DTD/sodipodi-0.dtd"
   xmlns:inkscape="http://www.inkscape.org/namespaces/inkscape"
   width="70"
   height="70"
   id="svg3531"
   version="1.1"
   inkscape:version="0.48.4 r9939"
   sodipodi:docname="Nouveau document 5">
  <defs
     id="defs3533" />
  <sodipodi:namedview
     id="base"
     pagecolor="#ffffff"
     bordercolor="#666666"
     borderopacity="1.0"
     inkscape:pageopacity="0.0"
     inkscape:pageshadow="2"
     inkscape:zoom="1.4"
     inkscape:cx="-264.82143"
     inkscape:cy="60.283389"
     inkscape:document-units="px"
     inkscape:current-layer="layer1"
     showgrid="false"
     fit-margin-top="0"
     fit-margin-left="0"
     fit-margin-right="0"
     fit-margin-bottom="0"
     inkscape:window-width="1366"
     inkscape:window-height="719"
     inkscape:window-x="0"
     inkscape:window-y="0"
     inkscape:window-maximized="1" />
  <metadata
     id="metadata3536">
    <rdf:RDF>
      <cc:Work
         rdf:about="">
        <dc:format>image/svg+xml</dc:format>
        <dc:type
           rdf:resource="http://purl.org/dc/dcmitype/StillImage" />
        <dc:title></dc:title>
      </cc:Work>
    </rdf:RDF>
  </metadata>
  <g
     inkscape:label="Calque 1"
     inkscape:groupmode="layer"
     id="layer1"
     transform="translate(-161.25,97.637417)">
    <path
       inkscape:connector-curvature="0"
       d="m 198.125,-50.868042 0,-4.269375 c 0,-1.036875 -0.84,-1.875 -1.875,-1.875 -1.035,0 -1.875,0.838125 -1.875,1.875 l 0,4.269375 c -1.11563,0.650625 -1.875,1.845 -1.875,3.230625 0,2.07 1.68,3.75 3.75,3.75 2.07,0 3.75,-1.68 3.75,-3.75 0,-1.385625 -0.75937,-2.58 -1.875,-3.230625 m 15,12.605625 c 0,1.033125 -0.84188,1.875 -1.875,1.875 l -30,0 c -1.03312,0 -1.875,-0.841875 -1.875,-1.875 l 0,-22.5 c 0,-1.035 0.84188,-1.875 1.875,-1.875 l 30,0 c 1.03312,0 1.875,0.84 1.875,1.875 l 0,22.5 z M 185,-77.637417 c 0,-6.204375 5.04563,-11.25 11.25,-11.25 6.20437,0 11.25,5.045625 11.25,11.25 l 0,11.25 -22.5,0 0,-11.25 z m 26.25,11.25 0,-11.25 c 0,-8.270625 -6.72938,-15 -15,-15 -8.27062,0 -15,6.729375 -15,15 l 0,11.25 c -3.10125,0 -5.625,2.521875 -5.625,5.625 l 0,22.5 c 0,3.10125 2.52375,5.625 5.625,5.625 l 30,0 c 3.10125,0 5.625,-2.52375 5.625,-5.625 l 0,-22.5 c 0,-3.103125 -2.52375,-5.625 -5.625,-5.625"
       style="fill:#eaa502;fill-opacity:1;fill-rule:nonzero;stroke:none"
       id="path3130" />
  </g>
</svg>
