<?xml version="1.0" encoding="UTF-8" standalone="no"?>
<!-- Created with Inkscape (http://www.inkscape.org/) -->

<svg
   xmlns:dc="http://purl.org/dc/elements/1.1/"
   xmlns:cc="http://creativecommons.org/ns#"
   xmlns:rdf="http://www.w3.org/1999/02/22-rdf-syntax-ns#"
   xmlns:svg="http://www.w3.org/2000/svg"
   xmlns="http://www.w3.org/2000/svg"
   xmlns:sodipodi="http://sodipodi.sourceforge.net/DTD/sodipodi-0.dtd"
   xmlns:inkscape="http://www.inkscape.org/namespaces/inkscape"
   width="70"
   height="70"
   id="svg3531"
   version="1.1"
   inkscape:version="0.48.4 r9939"
   sodipodi:docname="ico-translation.svg">
  <defs
     id="defs3533" />
  <sodipodi:namedview
     id="base"
     pagecolor="#ffffff"
     bordercolor="#666666"
     borderopacity="1.0"
     inkscape:pageopacity="0.0"
     inkscape:pageshadow="2"
     inkscape:zoom="2.8"
     inkscape:cx="40.889918"
     inkscape:cy="60.283389"
     inkscape:document-units="px"
     inkscape:current-layer="layer1"
     showgrid="false"
     fit-margin-top="0"
     fit-margin-left="0"
     fit-margin-right="0"
     fit-margin-bottom="0"
     inkscape:window-width="1366"
     inkscape:window-height="719"
     inkscape:window-x="0"
     inkscape:window-y="0"
     inkscape:window-maximized="1" />
  <metadata
     id="metadata3536">
    <rdf:RDF>
      <cc:Work
         rdf:about="">
        <dc:format>image/svg+xml</dc:format>
        <dc:type
           rdf:resource="http://purl.org/dc/dcmitype/StillImage" />
        <dc:title></dc:title>
      </cc:Work>
    </rdf:RDF>
  </metadata>
  <g
     inkscape:label="Calque 1"
     inkscape:groupmode="layer"
     id="layer1"
     transform="translate(-161.25,97.637417)">
    <path
       inkscape:connector-curvature="0"
       d="m 217.18253,-37.516194 -18.06501,-9.852105 22.6094,-35.70242 -4.54439,45.554525 z m -26.54799,-3.465962 0,-9.688943 20.44692,-22.60002 -20.44692,32.288963 z m -2.70825,-12.288413 -13.8451,0 37.75236,-26.42609 -23.90726,26.42609 z m 38.30938,-37.48228 c 0,-0.0695 0,-0.13504 -0.007,-0.20068 -0.007,-0.0656 -0.006,-0.13129 -0.0188,-0.19693 -0.008,-0.0375 -0.0282,-0.0713 -0.0357,-0.10503 -0.0225,-0.0695 -0.0432,-0.13879 -0.0713,-0.20443 -0.0169,-0.0395 -0.0225,-0.0807 -0.0395,-0.12004 -0.03,-0.0563 -0.0695,-0.10878 -0.10503,-0.16504 -0.0338,-0.0545 -0.0695,-0.10698 -0.10878,-0.15567 -0.0563,-0.0713 -0.11058,-0.14254 -0.17817,-0.20631 -0.0135,-0.015 -0.0207,-0.0338 -0.0338,-0.0488 -0.03,-0.0243 -0.0657,-0.03 -0.0956,-0.0543 -0.032,-0.028 -0.0638,-0.0525 -0.0975,-0.0768 -0.0225,-0.0187 -0.0357,-0.045 -0.062,-0.06 -0.007,-0.006 -0.0168,-0.006 -0.0243,-0.009 -0.0105,-0.009 -0.0188,-0.0207 -0.032,-0.0263 -0.0713,-0.0432 -0.15192,-0.06 -0.22694,-0.092 -0.0618,-0.0243 -0.11808,-0.0525 -0.18005,-0.0713 -0.0563,-0.0207 -0.11253,-0.0338 -0.17067,-0.045 -0.0675,-0.015 -0.13129,-0.015 -0.20068,-0.0225 -0.0845,-0.007 -0.16692,-0.0263 -0.25132,-0.0243 -0.0243,0.003 -0.045,0.0135 -0.0675,0.015 -0.045,0.002 -0.0882,0.017 -0.13504,0.0243 -0.0713,0.012 -0.13503,0.0187 -0.20255,0.0357 -0.077,0.0225 -0.15004,0.047 -0.22319,0.0788 -0.0581,0.0243 -0.11448,0.0545 -0.17067,0.0863 -0.0488,0.0263 -0.10128,0.045 -0.15192,0.075 -0.0135,0.009 -0.0282,0.0135 -0.0395,0.0207 l -0.001,0 -56.25069,39.37093 c -0.67143,0.46888 -0.95839,1.32037 -0.71269,2.10058 0.24381,0.77835 0.96964,1.31099 1.78737,1.31099 l 18.7552,0 0,15.004168 c 0,0.07127 0.032,0.129411 0.0395,0.195054 0.015,0.129411 0.0375,0.25132 0.075,0.375104 0.0395,0.114407 0.0863,0.219436 0.14059,0.32259 0.06,0.103153 0.12184,0.198805 0.19881,0.28883 0.0825,0.101278 0.17442,0.185676 0.2757,0.264448 0.0543,0.04501 0.0845,0.103154 0.14254,0.138789 0.0581,0.03751 0.12183,0.05251 0.18005,0.08065 0.06,0.03001 0.11628,0.05627 0.17817,0.08065 0.21194,0.0769 0.42575,0.131286 0.64518,0.131286 l 0.003,0 c 0.22319,-0.0018 0.43888,-0.05439 0.64706,-0.133162 0.045,-0.01688 0.0882,-0.03001 0.13324,-0.05064 0.18942,-0.08627 0.36572,-0.200681 0.51951,-0.350722 0.0263,-0.02438 0.0432,-0.05439 0.0675,-0.08065 0.075,-0.08252 0.15192,-0.159419 0.21381,-0.258822 l 6.78001,-10.707346 c 0.0413,0.02813 0.0713,0.07314 0.11433,0.09753 l 20.63073,11.254998 c 0.55328,0.296333 1.21909,0.307586 1.77611,0.0095 0.55516,-0.292581 0.92839,-0.84586 0.99028,-1.472284 l 5.60781,-56.246869 c 0.007,-0.06 -0.008,-0.11808 -0.008,-0.1763"
       style="fill:#eaa502;fill-opacity:1;fill-rule:nonzero;stroke:none"
       id="path3158" />
  </g>
</svg>
