<?xml version="1.0" encoding="UTF-8" standalone="no"?>
<!-- Created with Inkscape (http://www.inkscape.org/) -->

<svg
   xmlns:dc="http://purl.org/dc/elements/1.1/"
   xmlns:cc="http://creativecommons.org/ns#"
   xmlns:rdf="http://www.w3.org/1999/02/22-rdf-syntax-ns#"
   xmlns:svg="http://www.w3.org/2000/svg"
   xmlns="http://www.w3.org/2000/svg"
   xmlns:sodipodi="http://sodipodi.sourceforge.net/DTD/sodipodi-0.dtd"
   xmlns:inkscape="http://www.inkscape.org/namespaces/inkscape"
   width="70"
   height="70"
   id="svg3531"
   version="1.1"
   inkscape:version="0.48.4 r9939"
   sodipodi:docname="ico-opensource.svg">
  <defs
     id="defs3533" />
  <sodipodi:namedview
     id="base"
     pagecolor="#ffffff"
     bordercolor="#666666"
     borderopacity="1.0"
     inkscape:pageopacity="0.0"
     inkscape:pageshadow="2"
     inkscape:zoom="2.8"
     inkscape:cx="40.889918"
     inkscape:cy="60.283389"
     inkscape:document-units="px"
     inkscape:current-layer="layer1"
     showgrid="false"
     fit-margin-top="0"
     fit-margin-left="0"
     fit-margin-right="0"
     fit-margin-bottom="0"
     inkscape:window-width="1366"
     inkscape:window-height="719"
     inkscape:window-x="0"
     inkscape:window-y="0"
     inkscape:window-maximized="1" />
  <metadata
     id="metadata3536">
    <rdf:RDF>
      <cc:Work
         rdf:about="">
        <dc:format>image/svg+xml</dc:format>
        <dc:type
           rdf:resource="http://purl.org/dc/dcmitype/StillImage" />
        <dc:title></dc:title>
      </cc:Work>
    </rdf:RDF>
  </metadata>
  <g
     inkscape:label="Calque 1"
     inkscape:groupmode="layer"
     id="layer1"
     transform="translate(-161.25,97.637417)">
    <path
       inkscape:connector-curvature="0"
       d="m 212.1875,-73.883668 c -1.5675,-1.17937 -3.51563,-1.87875 -5.625,-1.87875 -5.16938,0 -9.375,4.20563 -9.375,9.375 0,3.10125 -2.52375,5.625 -5.625,5.625 -3.10125,0 -5.625,-2.52375 -5.625,-5.625 l 0,-9.42187 c 1.57125,1.18687 3.50625,1.92187 5.625,1.92187 5.16937,0 9.375,-4.20562 9.375,-9.375 0,-3.10125 2.52375,-5.625 5.625,-5.625 3.10125,0 5.625,2.52375 5.625,5.625 l 0,9.37875 z m -5.625,-18.75375 c -5.16938,0 -9.375,4.20563 -9.375,9.375 0,3.10125 -2.52375,5.625 -5.625,5.625 -3.10125,0 -5.625,-2.52375 -5.625,-5.625 l 0,-2.39437 c 0.27375,-0.15938 0.54,-0.34313 0.77625,-0.57938 1.46437,-1.46437 1.46437,-3.84 0,-5.3025 -1.4625,-1.4625 -3.83813,-1.46437 -5.3025,0 -1.46438,1.4625 -1.46438,3.83813 0,5.3025 0.23625,0.23625 0.5025,0.42 0.77625,0.57938 l 0,49.269373 -3.75,0 c -1.03688,0 -1.875,0.84 -1.875,1.875 0,1.035 0.83812,1.875 1.875,1.875 l 11.25,0 c 1.03687,0 1.875,-0.84 1.875,-1.875 0,-1.035 -0.83813,-1.875 -1.875,-1.875 l -3.75,0 0,-22.546873 c 1.57125,1.18875 3.50625,1.92187 5.625,1.92187 5.16937,0 9.375,-4.20562 9.375,-9.375 0,-3.10125 2.52375,-5.625 5.625,-5.625 3.10125,0 5.625,2.52375 5.625,5.625 0,1.035 0.83812,1.875 1.875,1.875 1.03687,0 1.875,-0.84 1.875,-1.875 l 0,-16.875001 c 0,-5.169369 -4.20563,-9.375 -9.375,-9.375"
       style="fill:#eaa502;fill-opacity:1;fill-rule:nonzero;stroke:none"
       id="path3422" />
  </g>
</svg>
