<?xml version="1.0" encoding="UTF-8" standalone="no"?>
<!-- Created with Inkscape (http://www.inkscape.org/) -->

<svg
   xmlns:dc="http://purl.org/dc/elements/1.1/"
   xmlns:cc="http://creativecommons.org/ns#"
   xmlns:rdf="http://www.w3.org/1999/02/22-rdf-syntax-ns#"
   xmlns:svg="http://www.w3.org/2000/svg"
   xmlns="http://www.w3.org/2000/svg"
   xmlns:sodipodi="http://sodipodi.sourceforge.net/DTD/sodipodi-0.dtd"
   xmlns:inkscape="http://www.inkscape.org/namespaces/inkscape"
   width="70"
   height="90"
   id="svg3550"
   version="1.1"
   inkscape:version="0.48.4 r9939"
   sodipodi:docname="ico-about.svg">
  <defs
     id="defs3552" />
  <sodipodi:namedview
     id="base"
     pagecolor="#ffffff"
     bordercolor="#666666"
     borderopacity="1.0"
     inkscape:pageopacity="0.0"
     inkscape:pageshadow="2"
     inkscape:zoom="1.4321429"
     inkscape:cx="-76.61467"
     inkscape:cy="53.727148"
     inkscape:document-units="px"
     inkscape:current-layer="layer1"
     showgrid="false"
     fit-margin-top="0"
     fit-margin-left="0"
     fit-margin-right="0"
     fit-margin-bottom="0"
     inkscape:window-width="1280"
     inkscape:window-height="1003"
     inkscape:window-x="1920"
     inkscape:window-y="56"
     inkscape:window-maximized="1" />
  <metadata
     id="metadata3555">
    <rdf:RDF>
      <cc:Work
         rdf:about="">
        <dc:format>image/svg+xml</dc:format>
        <dc:type
           rdf:resource="http://purl.org/dc/dcmitype/StillImage" />
        <dc:title></dc:title>
      </cc:Work>
    </rdf:RDF>
  </metadata>
  <g
     inkscape:label="Calque 1"
     inkscape:groupmode="layer"
     id="layer1"
     transform="translate(226.42857,36.923532)">
    <path
       d="m -173.92857,28.076468 -35,0 c -1.38251,0 -2.5,1.1175 -2.5,2.5 0,1.38 1.11749,2.5 2.5,2.5 l 35,0 c 1.38249,0 2.5,-1.12 2.5,-2.5 0,-1.3825 -1.11751,-2.5 -2.5,-2.5 m 0,-10 -35,0 c -1.38251,0 -2.5,1.1175 -2.5,2.5 0,1.38 1.11749,2.5 2.5,2.5 l 35,0 c 1.38249,0 2.5,-1.12 2.5,-2.5 0,-1.3825 -1.11751,-2.5 -2.5,-2.5 m 0,-10 -35,0 c -1.38251,0 -2.5,1.1175 -2.5,2.5 0,1.3825 1.11749,2.5 2.5,2.5 l 35,0 c 1.38249,0 2.5,-1.1175 2.5,-2.5 0,-1.3825 -1.11751,-2.5 -2.5,-2.5 m 0,-10 -35,0 c -1.38251,0 -2.5,1.1175 -2.5,2.5 0,1.3825 1.11749,2.5 2.5,2.5 l 35,0 c 1.38249,0 2.5,-1.1175 2.5,-2.5 0,-1.3825 -1.11751,-2.5 -2.5,-2.5 m -35,-5 20,0 c 1.38249,0 2.5,-1.1175 2.5,-2.5 0,-1.3825 -1.11751,-2.5 -2.5,-2.5 l -20,0 c -1.38251,0 -2.5,1.1175 -2.5,2.5 0,1.3825 1.11749,2.5 2.5,2.5 m 42.5,0 0,47.8125 c 0,1.205 -0.84249,2.1875 -1.875,2.1875 l -46.25,0 c -1.03251,0 -1.875,-0.9825 -1.875,-2.1875 l 0,-65.625 c 0,-1.205 0.84249,-2.1875 1.875,-2.1875 l 28.125,0 3.125,0 c 1.03251,0 1.875,0.9825 1.875,2.1875 l 0,2.8125 0,2.8125 c 0,3.965 3.08249,7.1875 6.875,7.1875 l 3.125,0 3.125,0 c 1.03251,0 1.875,0.9825 1.875,2.1875 l 0,2.8125 z m -1.875,-10 -3.125,0 -3.125,0 c -1.03251,0 -1.875,-0.9825 -1.875,-2.1875 l 0,-2.8125 0,-2.8125 c 0,-3.965 -3.08249,-7.1875 -6.875,-7.1875 l -3.125,0 -28.125,0 c -3.79251,0 -6.875,3.2225 -6.875,7.1875 l 0,65.625 c 0,3.9625 3.08249,7.1875 6.875,7.1875 l 46.25,0 c 3.79251,0 6.875,-3.225 6.875,-7.1875 l 0,-47.8125 0,-2.8125 c 0,-3.965 -3.08249,-7.1875 -6.875,-7.1875"
       style="fill:#eaa205;fill-opacity:1;fill-rule:nonzero;stroke:none"
       id="path3412"
       inkscape:connector-curvature="0" />
  </g>
</svg>
