<?xml version="1.0" encoding="UTF-8" standalone="no"?>
<!-- Created with Inkscape (http://www.inkscape.org/) -->

<svg
   xmlns:dc="http://purl.org/dc/elements/1.1/"
   xmlns:cc="http://creativecommons.org/ns#"
   xmlns:rdf="http://www.w3.org/1999/02/22-rdf-syntax-ns#"
   xmlns:svg="http://www.w3.org/2000/svg"
   xmlns="http://www.w3.org/2000/svg"
   xmlns:sodipodi="http://sodipodi.sourceforge.net/DTD/sodipodi-0.dtd"
   xmlns:inkscape="http://www.inkscape.org/namespaces/inkscape"
   width="70"
   height="70"
   id="svg6642"
   version="1.1"
   inkscape:version="0.48.4 r9939"
   sodipodi:docname="Nouveau document 25">
  <defs
     id="defs6644" />
  <sodipodi:namedview
     id="base"
     pagecolor="#ffffff"
     bordercolor="#666666"
     borderopacity="1.0"
     inkscape:pageopacity="0.0"
     inkscape:pageshadow="2"
     inkscape:zoom="1.4"
     inkscape:cx="52.382596"
     inkscape:cy="-4.5664861"
     inkscape:document-units="px"
     inkscape:current-layer="layer1"
     showgrid="false"
     fit-margin-top="0"
     fit-margin-left="0"
     fit-margin-right="0"
     fit-margin-bottom="0"
     inkscape:window-width="1280"
     inkscape:window-height="1003"
     inkscape:window-x="1920"
     inkscape:window-y="56"
     inkscape:window-maximized="1" />
  <metadata
     id="metadata6647">
    <rdf:RDF>
      <cc:Work
         rdf:about="">
        <dc:format>image/svg+xml</dc:format>
        <dc:type
           rdf:resource="http://purl.org/dc/dcmitype/StillImage" />
        <dc:title></dc:title>
      </cc:Work>
    </rdf:RDF>
  </metadata>
  <g
     inkscape:label="Calque 1"
     inkscape:groupmode="layer"
     id="layer1"
     transform="translate(-617.14286,-348.07662)">
    <path
       d="m 677.85102,360.01587 -24.38253,24.38628 c -0.71061,0.70875 -1.94062,0.70875 -2.65125,0 l -24.38253,-24.38628 c -0.34875,-0.34875 -0.54188,-0.8175 -0.54188,-1.31438 0,-0.5025 0.19501,-0.97312 0.54939,-1.32375 0.35438,-0.35625 0.825,-0.55125 1.32563,-0.55125 l 48.75006,0 c 0.50062,0 0.97125,0.195 1.32561,0.55125 0.35627,0.35063 0.54939,0.82125 0.54939,1.32375 0,0.49688 -0.19125,0.96563 -0.54188,1.31438 m 0.54188,41.35693 -18.29628,-18.29628 18.29628,-18.30002 0,36.5963 z m -0.14625,6.80438 c -0.0937,0.22125 -0.22689,0.42375 -0.40314,0.59812 -0.17624,0.17813 -0.38062,0.31126 -0.60186,0.40501 -0.22126,0.0937 -0.46688,0.14625 -0.72375,0.14625 l -48.75006,0 c -0.25688,0 -0.5025,-0.0525 -0.72375,-0.14625 -0.22125,-0.0937 -0.42563,-0.22688 -0.60188,-0.40501 -0.17625,-0.17437 -0.30939,-0.37687 -0.40314,-0.59812 -0.0937,-0.22313 -0.14625,-0.46875 -0.14625,-0.72563 0,-0.49875 0.19313,-0.9675 0.54188,-1.31437 l 20.40566,-20.4094 1.32563,1.32562 c 1.06125,1.06313 2.475,1.64813 3.97688,1.64813 1.50187,0 2.91563,-0.585 3.97688,-1.64813 l 1.32562,-1.32562 20.40565,20.4094 c 0.35063,0.34687 0.54188,0.81562 0.54188,1.31437 0,0.25688 -0.0525,0.5025 -0.14625,0.72563 m -52.35382,-43.39693 18.29628,18.29627 -18.29628,18.30003 0,-36.5963 z m 54.60195,-10.05564 c -1.06313,-1.065 -2.47501,-1.64813 -3.97688,-1.64813 l -48.75006,0 c -1.50188,0 -2.91376,0.58313 -3.97688,1.64813 -1.06125,1.05938 -1.64814,2.47313 -1.64814,3.97688 l 0,48.75006 c 0,0.3825 0.0412,0.7575 0.1143,1.12313 0.0135,0.0712 0.043,0.13125 0.06,0.19875 0.0693,0.2925 0.15,0.58313 0.26625,0.8625 0.0135,0.0282 0.03,0.0488 0.0432,0.077 0.27563,0.63 0.66188,1.21313 1.16438,1.7175 0.24187,0.24188 0.50625,0.45 0.78187,0.64125 0.0187,0.015 0.0356,0.03 0.0525,0.0432 0.26063,0.17625 0.53813,0.31875 0.825,0.44625 0.045,0.0225 0.0882,0.0544 0.135,0.0732 0.27,0.1143 0.55125,0.19125 0.83627,0.26063 0.075,0.0207 0.1443,0.0525 0.22125,0.0675 0.3675,0.0731 0.7425,0.1143 1.125,0.1143 l 48.75006,0 c 0.3825,0 0.7575,-0.0412 1.125,-0.1143 0.0768,-0.015 0.14625,-0.0468 0.22312,-0.0675 0.28313,-0.0693 0.56626,-0.14625 0.83438,-0.26063 0.0488,-0.0188 0.0937,-0.0525 0.1425,-0.077 0.28313,-0.1275 0.55875,-0.26625 0.8175,-0.4425 0.0187,-0.0135 0.0337,-0.0282 0.0525,-0.0432 0.27563,-0.19125 0.54,-0.39937 0.78188,-0.64125 0.49875,-0.49875 0.88125,-1.07812 1.15875,-1.70437 0.0135,-0.0319 0.0357,-0.06 0.0488,-0.09 0.1143,-0.2775 0.195,-0.56813 0.26625,-0.86063 0.0169,-0.0675 0.0468,-0.12945 0.0618,-0.20063 0.0732,-0.36562 0.1125,-0.74062 0.1125,-1.12312 l 0,-48.75006 c 0,-1.50375 -0.585,-2.91751 -1.64813,-3.97688"
       style="fill:#eaa205;fill-opacity:1;fill-rule:nonzero;stroke:none"
       id="path3110"
       inkscape:connector-curvature="0" />
  </g>
</svg>
