<?xml version="1.0" encoding="UTF-8" standalone="no"?>
<!-- Created with Inkscape (http://www.inkscape.org/) -->

<svg
   xmlns:dc="http://purl.org/dc/elements/1.1/"
   xmlns:cc="http://creativecommons.org/ns#"
   xmlns:rdf="http://www.w3.org/1999/02/22-rdf-syntax-ns#"
   xmlns:svg="http://www.w3.org/2000/svg"
   xmlns="http://www.w3.org/2000/svg"
   xmlns:sodipodi="http://sodipodi.sourceforge.net/DTD/sodipodi-0.dtd"
   xmlns:inkscape="http://www.inkscape.org/namespaces/inkscape"
   width="70"
   height="70"
   id="svg7195"
   version="1.1"
   inkscape:version="0.48.4 r9939"
   sodipodi:docname="Nouveau document 29">
  <defs
     id="defs7197" />
  <sodipodi:namedview
     id="base"
     pagecolor="#ffffff"
     bordercolor="#666666"
     borderopacity="1.0"
     inkscape:pageopacity="0.0"
     inkscape:pageshadow="2"
     inkscape:zoom="5.6"
     inkscape:cx="36.429131"
     inkscape:cy="7.7364901"
     inkscape:document-units="px"
     inkscape:current-layer="layer1"
     showgrid="false"
     fit-margin-top="0"
     fit-margin-left="0"
     fit-margin-right="0"
     fit-margin-bottom="0"
     inkscape:window-width="1280"
     inkscape:window-height="1003"
     inkscape:window-x="1920"
     inkscape:window-y="56"
     inkscape:window-maximized="1" />
  <metadata
     id="metadata7200">
    <rdf:RDF>
      <cc:Work
         rdf:about="">
        <dc:format>image/svg+xml</dc:format>
        <dc:type
           rdf:resource="http://purl.org/dc/dcmitype/StillImage" />
        <dc:title></dc:title>
      </cc:Work>
    </rdf:RDF>
  </metadata>
  <g
     inkscape:label="Calque 1"
     inkscape:groupmode="layer"
     id="layer1"
     transform="translate(-285.71419,423.3516)">
    <path
       d="m 341.33961,-388.35188 -28.125,0 c -1.03687,0 -1.875,0.83812 -1.875,1.875 l 0,1.875 c 0,1.035 0.83813,1.875 1.875,1.875 l 28.125,0 c 1.03688,0 1.875,-0.84 1.875,-1.875 l 0,-1.875 c 0,-1.03688 -0.83812,-1.875 -1.875,-1.875 m -18.75,16.875 -9.375,0 c -1.03687,0 -1.875,0.84 -1.875,1.875 0,1.03688 0.83813,1.875 1.875,1.875 l 9.375,0 c 1.03688,0 1.875,-0.83812 1.875,-1.875 0,-1.035 -0.83812,-1.875 -1.875,-1.875 m 0,-7.5 -9.375,0 c -1.03687,0 -1.875,0.84 -1.875,1.875 0,1.03688 0.83813,1.875 1.875,1.875 l 9.375,0 c 1.03688,0 1.875,-0.83812 1.875,-1.875 0,-1.035 -0.83812,-1.875 -1.875,-1.875 m 18.75,-16.875 -11.25,0 c -1.03687,0 -1.875,0.83812 -1.875,1.875 0,1.03688 0.83813,1.875 1.875,1.875 l 11.25,0 c 1.03688,0 1.875,-0.83812 1.875,-1.875 0,-1.03688 -0.83812,-1.875 -1.875,-1.875 m 0,-7.5 -11.25,0 c -1.03687,0 -1.875,0.83812 -1.875,1.875 0,1.03688 0.83813,1.875 1.875,1.875 l 11.25,0 c 1.03688,0 1.875,-0.83812 1.875,-1.875 0,-1.03688 -0.83812,-1.875 -1.875,-1.875 m 0,-7.5 -11.25,0 c -1.03687,0 -1.875,0.83812 -1.875,1.875 0,1.03688 0.83813,1.875 1.875,1.875 l 11.25,0 c 1.03688,0 1.875,-0.83812 1.875,-1.875 0,-1.03688 -0.83812,-1.875 -1.875,-1.875 m -13.125,43.125 15,0 0,-11.25 -15,0 0,11.25 z m -15,-24.375 c 1.03688,0 1.875,-0.83812 1.875,-1.875 l 0,-8.46375 5.91,9.45562 c 0.0638,0.10125 0.14251,0.18375 0.21938,0.26625 0.0225,0.0263 0.0412,0.0563 0.0675,0.0825 0.15375,0.15001 0.32813,0.26063 0.5175,0.34876 0.045,0.0225 0.0919,0.0375 0.13695,0.0562 0.21,0.077 0.42375,0.12749 0.645,0.12749 0.002,0 0.002,0.002 0.003,0.002 l 0.002,0 c 0.2175,0 0.43125,-0.0525 0.64312,-0.12945 0.0618,-0.0245 0.11625,-0.0488 0.17438,-0.0768 0.058,-0.03 0.1182,-0.0432 0.17437,-0.0769 0.06,-0.0395 0.0937,-0.0993 0.14805,-0.1443 0.1032,-0.0805 0.195,-0.15937 0.2775,-0.25875 0.077,-0.0937 0.13875,-0.1875 0.195,-0.29062 0.06,-0.105 0.10695,-0.21 0.1443,-0.32438 0.0414,-0.1236 0.062,-0.24367 0.077,-0.37117 0.006,-0.0713 0.0394,-0.13125 0.0394,-0.2025 l 0,-15 c 0,-1.03688 -0.83812,-1.875 -1.875,-1.875 -1.03687,0 -1.875,0.83812 -1.875,1.875 l 0,8.46562 -5.91,-9.4575 c -0.0375,-0.06 -0.0957,-0.0918 -0.13874,-0.1443 -0.0806,-0.105 -0.16313,-0.20062 -0.26438,-0.28312 -0.0918,-0.0768 -0.1875,-0.13875 -0.28875,-0.195 -0.105,-0.06 -0.21,-0.1068 -0.3225,-0.1443 -0.1257,-0.0412 -0.2475,-0.0618 -0.37687,-0.0768 -0.0693,-0.006 -0.1275,-0.0395 -0.19875,-0.0395 -0.0487,0 -0.0919,0.0263 -0.13875,0.03 -0.1293,0.007 -0.2475,0.0375 -0.37125,0.075 -0.1218,0.0319 -0.23625,0.0713 -0.34688,0.12945 -0.045,0.0225 -0.0956,0.0245 -0.13695,0.0505 -0.0618,0.0375 -0.0937,0.0975 -0.14805,0.1425 -0.10305,0.0788 -0.195,0.15937 -0.2775,0.25875 -0.0768,0.0937 -0.13875,0.18937 -0.195,0.29062 -0.06,0.105 -0.1068,0.21 -0.1443,0.32438 -0.0412,0.12375 -0.0618,0.24375 -0.0768,0.37312 -0.006,0.0695 -0.0394,0.12945 -0.0394,0.20063 l 0,15 c 0,1.03687 0.83813,1.875 1.875,1.875 m 33.75,24.375 c 0,3.10125 -2.52375,5.625 -5.625,5.625 l -41.25,0 c -3.10125,0 -5.625,-2.52375 -5.625,-5.62688 l 0,-30.22687 c 0,-0.90375 0.63188,-1.64063 1.40625,-1.64063 l 2.10938,0 0.23437,0 0,25.30688 c 0,2.58375 2.10188,4.6875 4.6875,4.6875 2.58563,0 4.6875,-2.10375 4.6875,-4.6875 l 0,-38.67188 c 0,-0.90375 0.63188,-1.64062 1.40625,-1.64062 l 36.5625,0 c 0.77438,0 1.40625,0.73687 1.40625,1.64062 l 0,45.23438 z m -1.40625,-50.625 -36.5625,0 c -2.84437,0 -5.15625,2.41687 -5.15625,5.39062 l 0,38.67188 c 0,0.51562 -0.42187,0.9375 -0.9375,0.9375 -0.51562,0 -0.9375,-0.42188 -0.9375,-0.9375 l 0,-27.18375 c 0,-1.04063 -0.87937,-1.95188 -1.89375,-1.875 -0.21187,0.002 -4.18312,0.0188 -4.2,0.002 -2.84437,-8e-5 -5.15625,2.41867 -5.15625,5.39055 l 0,30.22688 c 0,5.16938 4.20563,9.37688 9.375,9.37688 l 0,-0.0525 c 0.50813,0.0525 1.10625,0.0525 1.77188,0.0525 l 39.47812,0 c 5.16938,0 9.375,-4.20563 9.375,-9.375 l 0,-45.23438 c 0,-2.97375 -2.31187,-5.39062 -5.15625,-5.39062"
       style="fill:#eaa205;fill-opacity:1;fill-rule:nonzero;stroke:none"
       id="path3106"
       inkscape:connector-curvature="0" />
  </g>
</svg>
