<?xml version="1.0" encoding="UTF-8" standalone="no"?>
<!-- Created with Inkscape (http://www.inkscape.org/) -->

<svg
   xmlns:dc="http://purl.org/dc/elements/1.1/"
   xmlns:cc="http://creativecommons.org/ns#"
   xmlns:rdf="http://www.w3.org/1999/02/22-rdf-syntax-ns#"
   xmlns:svg="http://www.w3.org/2000/svg"
   xmlns="http://www.w3.org/2000/svg"
   xmlns:sodipodi="http://sodipodi.sourceforge.net/DTD/sodipodi-0.dtd"
   xmlns:inkscape="http://www.inkscape.org/namespaces/inkscape"
   width="70"
   height="70"
   id="svg3531"
   version="1.1"
   inkscape:version="0.48.4 r9939"
   sodipodi:docname="ico-accesslevels.svg">
  <defs
     id="defs3533" />
  <sodipodi:namedview
     id="base"
     pagecolor="#ffffff"
     bordercolor="#666666"
     borderopacity="1.0"
     inkscape:pageopacity="0.0"
     inkscape:pageshadow="2"
     inkscape:zoom="2.8"
     inkscape:cx="40.889918"
     inkscape:cy="60.283389"
     inkscape:document-units="px"
     inkscape:current-layer="layer1"
     showgrid="false"
     fit-margin-top="0"
     fit-margin-left="0"
     fit-margin-right="0"
     fit-margin-bottom="0"
     inkscape:window-width="1366"
     inkscape:window-height="719"
     inkscape:window-x="0"
     inkscape:window-y="0"
     inkscape:window-maximized="1" />
  <metadata
     id="metadata3536">
    <rdf:RDF>
      <cc:Work
         rdf:about="">
        <dc:format>image/svg+xml</dc:format>
        <dc:type
           rdf:resource="http://purl.org/dc/dcmitype/StillImage" />
        <dc:title></dc:title>
      </cc:Work>
    </rdf:RDF>
  </metadata>
  <g
     inkscape:label="Calque 1"
     inkscape:groupmode="layer"
     id="layer1"
     transform="translate(-161.25,97.637417)">
    <path
       inkscape:connector-curvature="0"
       d="m 207.47645,-68.871808 0,-5.05613 3.73819,2.525253 -3.73819,2.530877 z m 8.14941,-4.109395 -8.98179,-6.075979 c -0.57366,-0.388068 -1.31418,-0.423688 -1.92159,-0.09186 -0.60741,0.328077 -0.98798,0.971107 -0.98798,1.672254 l 0,3.800065 -3.74195,0 c -6.19033,0 -11.22586,5.108622 -11.22586,11.390821 0,4.190007 -3.35761,7.594506 -7.482,7.594506 l -1.87473,0 c -1.03297,0 -1.87097,0.851124 -1.87097,1.899095 0,1.05172 0.838,1.899095 1.87097,1.899095 l 1.87473,0 c 6.19033,0 11.22395,-5.110497 11.22395,-11.392696 0,-4.190008 3.35577,-7.594506 7.48391,-7.594506 l 3.74195,0 0,4.559328 c 0,0.699272 0.38057,1.342302 0.98798,1.672254 0.27559,0.149978 0.57928,0.223092 0.883,0.223092 0.36369,0 0.7255,-0.104985 1.03859,-0.318703 l 8.98179,-6.077854 c 0.52119,-0.350574 0.83425,-0.944861 0.83425,-1.580392 0,-0.633657 -0.31306,-1.22607 -0.83425,-1.578518 m -36.2159,3.100793 1.87473,0 c 1.10607,0 2.2103,0.271835 3.28264,0.809881 0.26621,0.13498 0.54929,0.196846 0.82675,0.196846 0.69176,0 1.35354,-0.388068 1.67974,-1.057344 0.45931,-0.939237 0.0787,-2.080944 -0.84738,-2.544 -1.59351,-0.800507 -3.2545,-1.201698 -4.94175,-1.201698 l -1.87473,0 c -1.03297,0 -1.87097,0.84925 -1.87097,1.895345 0,1.05172 0.838,1.90097 1.87097,1.90097 m 28.06649,14.18041 3.7382,2.530877 -3.7382,2.527128 0,-5.058005 z m -2.75397,10.27911 c 0.27559,0.151853 0.57928,0.224967 0.883,0.224967 0.36368,0 0.7255,-0.108734 1.03859,-0.318703 l 8.98179,-6.074105 c 0.52119,-0.354323 0.83425,-0.944861 0.83425,-1.580392 0,-0.635531 -0.31306,-1.227944 -0.83425,-1.580392 l -8.98179,-6.079729 c -0.57366,-0.388068 -1.31418,-0.423687 -1.92159,-0.09374 -0.60741,0.329951 -0.98798,0.972982 -0.98798,1.676003 l 0,4.555579 -3.74195,0 c -1.10797,0 -2.21217,-0.271835 -3.28826,-0.809881 -0.92986,-0.463057 -2.04721,-0.07874 -2.50465,0.864248 -0.45929,0.939236 -0.0768,2.077193 0.85113,2.54025 1.59164,0.800507 3.25453,1.203573 4.94178,1.203573 l 3.74195,0 0,3.79819 c 0,0.701147 0.38057,1.344177 0.98798,1.674128 m 19.95642,-14.193533 c -1.03296,-0.176224 -2.01719,0.502426 -2.20091,1.520401 -2.23094,12.562523 -13.2543,21.679305 -26.24238,21.679305 -12.95998,0 -23.98522,-9.116782 -26.21239,-21.67743 -0.18185,-1.017975 -1.1642,-1.6985 -2.19717,-1.522276 -1.03298,0.178099 -1.721,1.152955 -1.54478,2.165306 2.54588,14.356634 15.14402,24.778223 29.98432,24.778223 14.80469,0 27.40471,-10.421589 29.95621,-24.774474 0.0187,-0.110608 0.0282,-0.219342 0.0282,-0.326202 0,-0.892368 -0.65052,-1.683501 -1.57101,-1.842853 m -56.85848,-6.047859 c 1.03297,0.178099 2.0172,-0.502425 2.20092,-1.5204 2.22905,-12.562524 13.25616,-21.679305 26.24424,-21.679305 12.95998,0 23.98147,9.116781 26.20866,21.67743 0.18372,1.017975 1.16606,1.700374 2.19905,1.522275 0.92422,-0.157476 1.57288,-0.950484 1.57288,-1.842853 0,-0.104984 -0.009,-0.213718 -0.0282,-0.320578 -2.54588,-14.358508 -15.14589,-24.778223 -29.98244,-24.778223 -14.80844,0 -27.40659,10.419715 -29.95809,24.776349 -0.17622,1.032972 0.5118,1.987207 1.5429,2.165305"
       style="fill:#eaa502;fill-opacity:1;fill-rule:nonzero;stroke:none"
       id="path3232" />
  </g>
</svg>
