<?xml version="1.0" encoding="UTF-8" standalone="no"?>
<svg
   xmlns:dc="http://purl.org/dc/elements/1.1/"
   xmlns:cc="http://creativecommons.org/ns#"
   xmlns:rdf="http://www.w3.org/1999/02/22-rdf-syntax-ns#"
   xmlns:svg="http://www.w3.org/2000/svg"
   xmlns="http://www.w3.org/2000/svg"
   xmlns:sodipodi="http://sodipodi.sourceforge.net/DTD/sodipodi-0.dtd"
   xmlns:inkscape="http://www.inkscape.org/namespaces/inkscape"
   version="1.1"
   id="Layer_1"
   x="0px"
   y="0px"
   width="90px"
   height="90px"
   viewBox="0 0 90 90"
   enable-background="new 0 0 90 90"
   xml:space="preserve"
   inkscape:version="0.48.4 r9939"
   sodipodi:docname="logo-light.svg"><metadata
     id="metadata33"><rdf:RDF><cc:Work
         rdf:about=""><dc:format>image/svg+xml</dc:format><dc:type
           rdf:resource="http://purl.org/dc/dcmitype/StillImage" /><dc:title></dc:title></cc:Work></rdf:RDF></metadata><defs
     id="defs31" /><sodipodi:namedview
     pagecolor="#ffffff"
     bordercolor="#666666"
     borderopacity="1"
     objecttolerance="10"
     gridtolerance="10"
     guidetolerance="10"
     inkscape:pageopacity="0"
     inkscape:pageshadow="2"
     inkscape:window-width="1920"
     inkscape:window-height="1011"
     id="namedview29"
     showgrid="false"
     inkscape:zoom="5.6568543"
     inkscape:cx="74.472474"
     inkscape:cy="20.584389"
     inkscape:window-x="0"
     inkscape:window-y="24"
     inkscape:window-maximized="1"
     inkscape:current-layer="Layer_1" /><g
     id="g3"><path
       fill="#000000"
       d="M-998.675,768.699h-21.948l0-8.439c0,0-2.694,0-2.693,0v8.439v12.378c2.27,0.001,4.155,1.643,4.552,3.8   h2.655c-0.08-0.437-0.127-0.885-0.127-1.344c0-4.132,3.36-7.492,7.491-7.492c4.13,0,7.491,3.36,7.491,7.492   c0,0.459-0.048,0.907-0.127,1.344h2.706V768.699z"
       id="path5" /><path
       fill="#000000"
       d="M-1008.745,778.056c-3.02,0-5.477,2.458-5.477,5.477c0,0.465,0.064,0.913,0.174,1.344   c0.602,2.371,2.747,4.133,5.303,4.133c2.556,0,4.701-1.762,5.302-4.133c0.109-0.431,0.174-0.879,0.174-1.344   C-1003.269,780.514-1005.725,778.056-1008.745,778.056z M-1008.745,785.925c-0.821,0-1.546-0.416-1.977-1.048   c-0.262-0.384-0.415-0.846-0.415-1.344c0-1.319,1.073-2.393,2.393-2.393c1.319,0,2.392,1.073,2.392,2.393   c0,0.498-0.154,0.96-0.416,1.344C-1007.2,785.509-1007.924,785.925-1008.745,785.925z"
       id="path7" /><path
       fill="#000000"
       d="M-1020.144,784.877c-0.374-1.408-1.648-2.455-3.172-2.456c0,0-0.001,0-0.001,0   c-1.817,0-3.294,1.479-3.294,3.295c0,1.817,1.478,3.294,3.294,3.294s3.295-1.477,3.295-3.294   C-1020.023,785.424-1020.073,785.146-1020.144,784.877z M-1022.284,785.716c0,0.569-0.463,1.032-1.034,1.032   c-0.569,0-1.033-0.463-1.033-1.032s0.464-1.033,1.033-1.033c0,0,0.001,0,0.001,0c0.215,0.001,0.403,0.082,0.568,0.194   C-1022.475,785.063-1022.284,785.361-1022.284,785.716z"
       id="path9" /><g
       id="g11"><polygon
         fill="#000000"
         points="-999.069,770.993 -1000.968,769.093 -997.427,765.551 -995.527,767.451 -999.069,770.993   "
         id="polygon13" /></g></g><polygon
     fill="#000000"
     points="-1021.967,747.69 -1038.589,754.697 -1037.764,758.118 -1029.784,758.118 -1027.957,754.697   -1026.132,758.118 -1017.8,758.118 -1015.974,754.697 -1014.146,758.118 -1006.168,758.118 -1005.344,754.697 "
     id="polygon15" /><path
     d="M 17.625 49.0625 C 16.196 49.0665 15.03125 50.22825 15.03125 51.65625 L 15.03125 58.40625 C 15.03125 59.83725 16.193 61 17.625 61 L 72.40625 61 C 73.83825 61 75 59.83625 75 58.40625 L 75 51.65625 C 75 50.22825 73.83525 49.0665 72.40625 49.0625 L 69.28125 49.0625 L 69.28125 54.71875 A 2.9377937 2.9377937 0 0 1 64.40625 56.9375 L 55.4375 49.0625 L 17.625 49.0625 z "
     id="path3822"
     style="fill:#ffffff" /><path
     d="M 17.59375,23 C 16.16175,23 15,24.16275 15,25.59375 l 0,17.8125 c 0,1.428 1.16475,2.59175 2.59375,2.59375 l 38.8125,0 9.9375,8.71875 0,-8.71875 6.0625,0 C 73.83525,45.997 75,44.83425 75,43.40625 l 0,-17.8125 C 75,24.16275 73.83825,23 72.40625,23 z m 18.21875,9.34375 c 1.01,0 1.84375,0.83275 1.84375,1.84375 C 37.65625,35.1965 36.8235,36 35.8125,36 34.8035,36 34,35.1965 34,34.1875 c 0,-1.012 0.8035,-1.84375 1.8125,-1.84375 z m 9.1875,0 c 1.01,0 1.84375,0.83275 1.84375,1.84375 C 46.84375,35.1965 46.01,36 45,36 c -1.01,0 -1.8125,-0.8035 -1.8125,-1.8125 0,-1.012 0.8035,-1.84375 1.8125,-1.84375 z m 9.1875,0 C 55.1975,32.34375 56,33.1765 56,34.1875 56,35.1965 55.1965,36 54.1875,36 c -1.01,0 -1.84375,-0.8035 -1.84375,-1.8125 0,-1.012 0.83375,-1.84375 1.84375,-1.84375 z"
     id="path19"
     style="fill:#eaa502;fill-opacity:1"
     inkscape:connector-curvature="0"
     sodipodi:nodetypes="ssscccccsssssssssssssssssss" /><path
     d="M12,45.96V39c0-2.197-1.781-3.977-3.976-3.977H4.119c-2.196,0-3.976,1.78-3.976,3.977v18.005  c0,2.196,1.781,3.977,3.976,3.977h3.904c2.196,0,3.976-1.78,3.976-3.977v-4.474V45.96z"
     id="path21"
     style="fill:#ffffff" /><path
     d="M85.921,35.023H82c-2.195,0-3.976,1.78-3.976,3.977v6.085v6.571v5.367C78.024,59.22,79.805,61,82,61h3.921  c2.196,0,3.977-1.78,3.977-3.977V39C89.897,36.803,88.116,35.023,85.921,35.023z"
     id="path23"
     style="fill:#ffffff" /><polygon
     points="11,74 12.914,74 17.061,64 11,64 "
     id="polygon25"
     style="fill:#ffffff" /><polygon
     points="77.126,74 79,74 79,64 72.98,64 "
     id="polygon27"
     style="fill:#ffffff" /></svg>
